{"glyphs":{":":{"x_min":0,"x_max":195,"ha":195,"o":"m 75 98 l 173 98 l 146 0 l 49 0 z m 153 391 l 251 391 l 225 293 l 127 293 z"},"$":{"x_min":0,"x_max":732,"ha":732,"o":"m 494 293 l 454 146 l 552 146 q 582 146 609 168 q 637 189 645 220 q 653 250 637 271 q 622 293 591 293 z m 461 537 l 364 537 q 333 537 306 516 q 279 494 271 464 q 263 434 278 412 q 294 391 324 391 l 422 391 z m 396 293 l 298 293 q 228 293 191 343 q 154 393 173 464 q 192 535 255 585 q 319 635 390 635 l 487 635 l 500 684 l 598 684 l 585 635 l 854 635 l 828 537 l 559 537 l 520 391 l 617 391 q 688 391 725 341 q 761 291 743 220 q 724 149 660 99 q 597 49 526 49 l 428 49 l 415 0 l 317 0 l 331 49 l 62 49 l 88 146 l 356 146 z"},"?":{"x_min":0,"x_max":732,"ha":732,"o":"m 445 293 q 415 293 387 271 q 360 250 352 220 l 332 146 l 234 146 l 254 220 q 273 291 336 341 q 400 391 471 391 l 617 391 q 647 391 675 412 q 702 434 710 464 l 723 513 q 731 543 716 564 q 700 586 670 586 l 206 586 l 232 684 l 696 684 q 767 684 803 634 q 840 583 821 513 l 808 464 q 789 393 726 343 q 662 293 591 293 z m 222 98 l 319 98 l 293 0 l 195 0 z"},"<":{"x_min":0,"x_max":635,"ha":635,"o":"m 121 269 l 160 415 l 743 586 l 717 488 l 240 349 l 236 335 l 638 195 l 612 98 z"},"'":{"x_min":0,"x_max":195,"ha":195,"o":"m 255 586 l 206 586 l 232 684 l 330 684 l 297 562 q 292 542 273 527 q 255 513 235 513 l 215 513 l 199 562 l 224 562 q 248 562 255 586 z"},"=":{"x_min":0,"x_max":635,"ha":635,"o":"m 180 488 l 717 488 l 690 391 l 153 391 z m 127 293 l 665 293 l 638 195 l 101 195 z"},"a":{"x_min":0,"x_max":635,"ha":635,"o":"m 192 171 q 184 141 200 119 q 216 98 246 98 l 515 98 l 600 415 l 331 415 q 301 415 273 394 q 246 372 238 342 z m 586 0 l 220 0 q 149 0 112 50 q 76 100 95 171 l 141 342 q 159 413 223 463 q 286 513 357 513 l 723 513 z"},"L":{"x_min":0,"x_max":684,"ha":684,"o":"m 661 98 l 635 0 l 220 0 q 149 0 112 50 q 76 100 95 171 l 232 684 l 330 684 l 192 171 q 184 141 200 119 q 216 98 246 98 z"},"3":{"x_min":0,"x_max":732,"ha":732,"o":"m 274 293 l 300 391 l 617 391 q 647 391 675 412 q 702 434 710 464 l 723 513 q 731 543 716 564 q 700 586 670 586 l 206 586 l 232 684 l 696 684 q 767 684 803 634 q 840 583 821 513 l 808 464 q 789 393 725 341 q 761 291 743 220 l 729 171 q 710 100 647 50 q 583 0 513 0 l 49 0 l 75 98 l 539 98 q 569 98 596 119 q 624 141 632 171 l 645 220 q 653 250 637 271 q 622 293 591 293 z"},";":{"x_min":0,"x_max":195,"ha":195,"o":"m 153 391 l 251 391 l 225 293 l 127 293 z m 98 0 l 49 0 l 75 98 l 173 98 l 140 -24 q 135 -44 116 -59 q 98 -73 78 -73 l 58 -73 l 42 -24 l 67 -24 q 91 -24 98 0 z"},"J":{"x_min":0,"x_max":684,"ha":684,"o":"m 490 98 q 521 98 548 119 q 575 141 583 171 l 720 684 l 818 684 l 681 171 q 662 100 598 50 q 535 0 464 0 l 49 0 l 75 98 z"},"V":{"x_min":0,"x_max":732,"ha":732,"o":"m 293 0 l 208 684 l 305 684 l 378 98 l 407 98 l 793 684 l 891 684 l 439 0 z"},"\"":{"x_min":0,"x_max":342,"ha":342,"o":"m 255 586 l 206 586 l 232 684 l 330 684 l 297 562 q 292 542 273 527 q 255 513 235 513 l 215 513 l 199 562 l 224 562 q 248 562 255 586 z m 401 586 l 353 586 l 378 684 l 476 684 l 443 562 q 438 542 420 527 q 401 513 381 513 l 361 513 l 346 562 l 370 562 q 395 562 401 586 z"},"7":{"x_min":0,"x_max":732,"ha":732,"o":"m 818 684 l 342 0 l 232 0 l 640 586 l 206 586 l 232 684 z"},"S":{"x_min":0,"x_max":781,"ha":781,"o":"m 298 293 q 228 293 191 343 q 154 393 173 464 l 186 513 q 205 583 269 634 q 332 684 403 684 l 916 684 l 890 586 l 377 586 q 347 586 319 564 q 292 543 284 513 l 271 464 q 263 434 278 412 q 294 391 324 391 l 666 391 q 737 391 773 341 q 810 291 792 220 l 778 171 q 759 100 696 50 q 632 0 562 0 l 49 0 l 75 98 l 588 98 q 618 98 645 119 q 672 141 681 171 l 694 220 q 702 250 686 271 q 670 293 640 293 z"},"}":{"x_min":0,"x_max":537,"ha":537,"o":"m 385 341 q 350 393 369 464 l 395 562 q 403 592 387 613 q 371 635 341 635 l 219 635 l 245 732 l 367 732 q 438 732 475 682 q 511 632 492 562 l 466 464 q 458 434 474 412 q 489 391 520 391 l 593 391 l 567 293 l 494 293 q 463 293 436 271 q 409 250 401 220 l 375 122 q 355 51 292 1 q 229 -49 158 -49 l 36 -49 l 62 49 l 184 49 q 214 49 241 70 q 269 92 277 122 l 303 220 q 322 291 385 341 z"},"Z":{"x_min":0,"x_max":781,"ha":781,"o":"m 698 586 l 206 586 l 232 684 l 916 684 l 267 98 l 759 98 l 732 0 l 49 0 z"},"x":{"x_min":0,"x_max":586,"ha":586,"o":"m 301 256 l 162 513 l 284 513 l 382 332 l 577 513 l 699 513 l 423 256 l 562 0 l 439 0 l 341 181 l 146 0 l 24 0 z"},")":{"x_min":0,"x_max":488,"ha":488,"o":"m 282 49 q 312 49 339 70 q 366 92 375 122 l 492 562 q 500 592 485 613 q 469 635 438 635 l 219 635 l 245 732 l 465 732 q 536 732 572 682 q 609 632 590 562 l 472 122 q 453 51 390 1 q 326 -49 255 -49 l 36 -49 l 62 49 z"},"&":{"x_min":0,"x_max":732,"ha":732,"o":"m 393 98 q 423 98 450 119 q 477 141 485 171 l 511 269 q 520 299 504 320 q 488 342 458 342 l 312 342 q 281 342 254 320 q 227 299 218 269 l 192 171 q 184 141 200 119 q 216 98 246 98 z m 484 439 q 514 439 542 461 q 569 482 577 513 q 585 543 569 564 q 554 586 523 586 l 377 586 q 347 586 319 564 q 292 543 284 513 q 276 482 292 461 q 307 439 337 439 z m 502 51 q 501 51 501 50 q 437 0 366 0 l 220 0 q 149 0 112 50 q 76 100 95 171 l 121 269 q 140 339 203 390 q 204 390 205 391 q 205 391 204 392 q 167 442 186 513 q 205 583 269 634 q 332 684 403 684 l 549 684 q 620 684 657 634 q 693 583 674 513 q 655 442 594 390 q 657 439 728 439 l 802 439 l 776 342 l 702 342 q 672 342 645 320 q 617 299 609 269 l 583 171 q 575 141 591 119 q 606 98 637 98 l 710 98 l 684 0 l 610 0 q 540 0 503 50 q 502 51 502 51 z"},"_":{"x_min":0,"x_max":684,"ha":684,"o":"m 622 -49 l 596 -146 l 10 -146 l 36 -49 z"},"v":{"x_min":0,"x_max":586,"ha":586,"o":"m 332 98 l 601 513 l 699 513 l 366 0 l 220 0 l 162 513 l 259 513 l 307 98 z"},"O":{"x_min":0,"x_max":781,"ha":781,"o":"m 192 171 q 184 141 200 119 q 216 98 246 98 l 588 98 q 618 98 645 119 q 672 141 681 171 l 772 513 q 780 543 765 564 q 749 586 719 586 l 377 586 q 347 586 319 564 q 292 543 284 513 z m 778 171 q 759 100 696 50 q 632 0 562 0 l 220 0 q 149 0 112 50 q 76 100 95 171 l 186 513 q 205 583 269 634 q 332 684 403 684 l 745 684 q 815 684 852 634 q 889 583 870 513 z"},"(":{"x_min":0,"x_max":488,"ha":488,"o":"m 453 49 l 426 -49 l 207 -49 q 136 -49 99 1 q 62 51 82 122 l 199 562 q 218 632 282 682 q 345 732 416 732 l 636 732 l 609 635 l 390 635 q 359 635 332 613 q 305 592 297 562 l 179 122 q 171 92 187 70 q 203 49 233 49 z"},"C":{"x_min":0,"x_max":781,"ha":781,"o":"m 759 98 l 732 0 l 220 0 q 149 0 112 50 q 76 100 95 171 l 186 513 q 205 583 269 634 q 332 684 403 684 l 916 684 l 890 586 l 377 586 q 347 586 319 564 q 292 543 284 513 l 192 171 q 184 141 200 119 q 216 98 246 98 z"},"W":{"x_min":0,"x_max":1001,"ha":1001,"o":"m 195 0 l 208 684 l 305 684 l 294 91 l 623 684 l 745 684 l 734 91 l 1062 684 l 1160 684 l 781 0 l 635 0 l 645 547 l 342 0 z"},"A":{"x_min":0,"x_max":781,"ha":781,"o":"m 534 586 l 340 293 l 598 293 l 562 586 z m 647 684 l 732 0 l 635 0 l 610 195 l 275 195 l 146 0 l 49 0 l 500 684 z"},"f":{"x_min":0,"x_max":439,"ha":439,"o":"m 258 415 l 146 0 l 49 0 l 186 513 q 205 583 269 634 q 332 684 403 684 l 574 684 l 548 586 l 377 586 q 347 586 319 564 q 292 543 284 513 l 528 513 l 502 415 z"},"Q":{"x_min":0,"x_max":781,"ha":781,"o":"m 342 0 l 220 0 q 149 0 112 50 q 76 100 95 171 l 186 513 q 205 583 269 634 q 332 684 403 684 l 745 684 q 815 684 852 634 q 889 583 870 513 l 778 171 q 759 100 696 50 q 632 0 562 0 l 439 0 l 413 -98 l 315 -98 z m 368 98 l 394 195 l 492 195 l 466 98 l 588 98 q 618 98 645 119 q 672 141 681 171 l 772 513 q 780 543 765 564 q 749 586 719 586 l 377 586 q 347 586 319 564 q 292 543 284 513 l 192 171 q 184 141 200 119 q 216 98 246 98 z"},"w":{"x_min":0,"x_max":732,"ha":732,"o":"m 146 0 l 162 513 l 259 513 l 247 103 l 455 513 l 552 513 l 540 103 l 748 513 l 845 513 l 586 0 l 439 0 l 449 308 l 293 0 z"},"-":{"x_min":0,"x_max":635,"ha":635,"o":"m 153 391 l 690 391 l 665 293 l 127 293 z"},"E":{"x_min":0,"x_max":781,"ha":781,"o":"m 225 293 l 192 171 q 184 141 200 119 q 216 98 246 98 l 759 98 l 732 0 l 220 0 q 149 0 112 50 q 76 100 95 171 l 186 513 q 205 583 269 634 q 332 684 403 684 l 916 684 l 890 586 l 377 586 q 347 586 319 564 q 292 543 284 513 l 251 391 l 739 391 l 713 293 z"},"s":{"x_min":0,"x_max":635,"ha":635,"o":"m 308 513 l 674 513 l 648 415 l 282 415 q 272 415 263 408 q 254 401 251 391 l 235 330 q 232 319 237 312 q 242 305 252 305 l 545 305 q 596 305 622 270 q 648 234 635 183 l 619 123 q 605 71 560 36 q 515 0 464 0 l 49 0 l 75 98 l 490 98 q 500 98 509 105 q 518 112 521 122 l 537 183 q 540 193 535 200 q 530 208 520 208 l 227 208 q 176 208 150 243 q 124 279 137 330 l 153 391 q 167 441 212 477 q 257 513 308 513 z"},">":{"x_min":0,"x_max":635,"ha":635,"o":"m 75 98 l 101 195 l 578 335 l 582 349 l 180 488 l 206 586 l 697 415 l 658 269 z"},"l":{"x_min":0,"x_max":195,"ha":195,"o":"m 232 684 l 330 684 l 146 0 l 49 0 z"},"8":{"x_min":0,"x_max":732,"ha":732,"o":"m 539 98 q 569 98 596 119 q 624 141 632 171 l 645 220 q 653 250 637 271 q 622 293 591 293 l 298 293 q 268 293 241 271 q 213 250 206 220 l 192 171 q 184 141 200 119 q 216 98 246 98 z m 617 391 q 647 391 675 412 q 702 434 710 464 l 723 513 q 731 543 716 564 q 700 586 670 586 l 377 586 q 347 586 319 564 q 292 543 284 513 l 271 464 q 263 434 278 412 q 294 391 324 391 z m 696 684 q 767 684 803 634 q 840 583 821 513 l 808 464 q 789 393 726 343 q 725 342 724 342 q 724 341 725 341 q 761 291 743 220 l 729 171 q 710 100 647 50 q 583 0 513 0 l 220 0 q 149 0 112 50 q 76 100 95 171 l 108 220 q 126 291 190 341 q 191 341 192 342 q 191 342 190 343 q 154 393 173 464 l 186 513 q 205 583 269 634 q 332 684 403 684 z"},"\\":{"x_min":0,"x_max":464,"ha":464,"o":"m 330 684 l 415 0 l 317 0 l 232 684 z"},"e":{"x_min":0,"x_max":635,"ha":635,"o":"m 199 195 l 192 171 q 184 141 200 119 q 216 98 246 98 l 563 98 l 537 0 l 220 0 q 149 0 112 50 q 76 100 95 171 l 141 342 q 159 413 223 463 q 286 513 357 513 l 552 513 q 623 513 660 463 q 696 413 678 342 l 638 195 z m 567 293 l 580 342 q 588 372 572 394 q 557 415 526 415 l 331 415 q 301 415 273 394 q 246 372 238 342 l 225 293 z"},"b":{"x_min":0,"x_max":635,"ha":635,"o":"m 580 342 q 588 372 572 394 q 557 415 526 415 l 258 415 l 173 98 l 441 98 q 472 98 499 119 q 526 141 534 171 z m 232 684 l 330 684 l 284 513 l 552 513 q 623 513 660 463 q 696 413 678 342 l 632 171 q 613 100 549 50 q 486 0 415 0 l 49 0 z"},"%":{"x_min":0,"x_max":781,"ha":781,"o":"m 277 488 q 269 458 285 437 q 301 415 331 415 l 380 415 q 410 415 437 437 q 464 458 473 488 l 479 513 q 487 543 472 564 q 456 586 426 586 l 377 586 q 347 586 319 564 q 292 543 284 513 z m 485 171 q 477 141 493 119 q 509 98 539 98 l 588 98 q 618 98 645 119 q 672 141 681 171 l 687 195 q 695 226 679 247 q 664 269 633 269 l 584 269 q 554 269 527 247 q 500 226 492 195 z m 427 332 q 391 317 354 317 l 305 317 q 234 317 197 367 q 161 417 180 488 l 186 513 q 205 583 269 634 q 332 684 403 684 l 452 684 q 522 684 560 634 q 581 604 583 568 l 659 684 l 757 684 l 538 352 q 573 366 611 366 l 660 366 q 730 366 767 316 q 804 266 785 195 l 778 171 q 759 100 696 50 q 632 0 562 0 l 513 0 q 442 0 406 50 q 384 79 381 115 l 305 0 l 208 0 z"},"m":{"x_min":0,"x_max":928,"ha":928,"o":"m 507 342 q 515 372 499 394 q 483 415 453 415 l 331 415 q 301 415 273 394 q 246 372 238 342 l 146 0 l 49 0 l 141 342 q 159 413 223 463 q 286 513 357 513 l 479 513 q 550 513 587 463 q 587 462 587 461 q 588 462 589 463 q 652 513 723 513 l 845 513 q 916 513 953 463 q 989 413 971 342 l 879 0 l 781 0 l 873 342 q 881 372 865 394 q 850 415 819 415 l 697 415 q 667 415 640 394 q 612 372 604 342 l 513 0 l 415 0 z"},"#":{"x_min":0,"x_max":635,"ha":635,"o":"m 277 488 l 316 635 l 414 635 l 375 488 l 521 488 l 561 635 l 658 635 l 619 488 l 717 488 l 690 391 l 593 391 l 567 293 l 665 293 l 638 195 l 541 195 l 501 49 l 404 49 l 443 195 l 296 195 l 257 49 l 160 49 l 199 195 l 101 195 l 127 293 l 225 293 l 251 391 l 153 391 l 180 488 z m 349 391 l 323 293 l 469 293 l 495 391 z"},",":{"x_min":0,"x_max":195,"ha":195,"o":"m 98 0 l 49 0 l 75 98 l 173 98 l 140 -24 q 135 -44 116 -59 q 98 -73 78 -73 l 58 -73 l 42 -24 l 67 -24 q 91 -24 98 0 z"},"n":{"x_min":0,"x_max":635,"ha":635,"o":"m 146 0 l 49 0 l 141 342 q 159 413 223 463 q 286 513 357 513 l 552 513 q 623 513 660 463 q 696 413 678 342 l 586 0 l 488 0 l 580 342 q 588 372 572 394 q 557 415 526 415 l 331 415 q 301 415 273 394 q 246 372 238 342 z"},"h":{"x_min":0,"x_max":635,"ha":635,"o":"m 146 0 l 49 0 l 232 684 l 330 684 l 284 513 l 552 513 q 623 513 660 463 q 696 413 678 342 l 586 0 l 488 0 l 580 342 q 588 372 572 394 q 557 415 526 415 l 258 415 z"},"z":{"x_min":0,"x_max":635,"ha":635,"o":"m 276 98 l 612 98 l 586 0 l 49 0 l 496 415 l 160 415 l 186 513 l 723 513 z"},"B":{"x_min":0,"x_max":781,"ha":781,"o":"m 251 391 l 666 391 q 696 391 724 412 q 751 434 759 464 l 772 513 q 780 543 765 564 q 749 586 719 586 l 304 586 z m 232 684 l 745 684 q 815 684 852 634 q 889 583 870 513 l 857 464 q 838 393 774 343 q 773 342 773 342 q 773 341 774 341 q 810 291 792 220 l 778 171 q 759 100 696 50 q 632 0 562 0 l 49 0 z m 225 293 l 173 98 l 588 98 q 618 98 645 119 q 672 141 681 171 l 694 220 q 702 250 686 271 q 670 293 640 293 z"},"K":{"x_min":0,"x_max":757,"ha":757,"o":"m 232 684 l 330 684 l 213 249 l 793 684 l 916 684 l 506 376 l 732 0 l 623 0 l 430 320 l 183 134 l 146 0 l 49 0 z"},"R":{"x_min":0,"x_max":781,"ha":781,"o":"m 238 342 l 653 342 q 684 342 711 363 q 738 385 746 415 l 772 513 q 780 543 765 564 q 749 586 719 586 l 304 586 z m 146 0 l 49 0 l 232 684 l 745 684 q 815 684 852 634 q 889 583 870 513 l 844 415 q 825 344 762 294 q 760 293 760 293 q 760 292 761 292 q 797 242 778 171 l 732 0 l 635 0 l 681 171 q 688 201 673 223 q 657 244 627 244 l 212 244 z"},"T":{"x_min":0,"x_max":781,"ha":781,"o":"m 916 684 l 890 586 l 597 586 l 439 0 l 342 0 l 499 586 l 206 586 l 232 684 z"},"P":{"x_min":0,"x_max":781,"ha":781,"o":"m 238 342 l 653 342 q 684 342 711 363 q 738 385 746 415 l 772 513 q 780 543 765 564 q 749 586 719 586 l 304 586 z m 232 684 l 745 684 q 815 684 852 634 q 889 583 870 513 l 844 415 q 825 344 761 294 q 698 244 627 244 l 212 244 l 146 0 l 49 0 z"},"|":{"x_min":0,"x_max":195,"ha":195,"o":"m 245 732 l 343 732 l 133 -49 l 36 -49 z"},"t":{"x_min":0,"x_max":439,"ha":439,"o":"m 528 513 l 502 415 l 258 415 l 192 171 q 184 141 200 120 q 216 98 246 98 l 417 98 l 391 0 l 220 0 q 149 0 112 51 q 76 101 95 171 l 232 684 l 330 684 l 284 513 z"},"M":{"x_min":0,"x_max":830,"ha":830,"o":"m 342 0 l 280 497 l 146 0 l 49 0 l 232 684 l 354 684 l 427 98 l 456 98 l 842 684 l 964 684 l 781 0 l 684 0 l 817 497 l 488 0 z"},"g":{"x_min":0,"x_max":635,"ha":635,"o":"m 192 171 q 184 141 200 119 q 216 98 246 98 l 515 98 l 600 415 l 331 415 q 301 415 273 394 q 246 372 238 342 z m 488 0 l 220 0 q 149 0 112 50 q 76 100 95 171 l 141 342 q 159 413 223 463 q 286 513 357 513 l 723 513 l 580 -24 q 561 -95 497 -145 q 434 -195 363 -195 l 94 -195 l 120 -98 l 389 -98 q 419 -98 446 -76 q 474 -55 482 -24 z"},"j":{"x_min":0,"x_max":195,"ha":195,"o":"m 186 513 l 284 513 l 140 -24 q 121 -95 58 -145 q -6 -195 -77 -195 l -101 -195 l -75 -98 l -51 -98 q -21 -98 7 -76 q 34 -55 42 -24 z m 232 684 l 330 684 l 304 586 l 206 586 z"},"i":{"x_min":0,"x_max":195,"ha":195,"o":"m 186 513 l 284 513 l 146 0 l 49 0 z m 330 684 l 304 586 l 206 586 l 232 684 z"},"y":{"x_min":0,"x_max":635,"ha":635,"o":"m 625 513 l 723 513 l 580 -24 q 561 -95 497 -145 q 434 -195 363 -195 l 94 -195 l 120 -98 l 389 -98 q 419 -98 446 -76 q 474 -55 482 -24 l 488 0 l 220 0 q 149 0 112 50 q 76 100 95 171 l 186 513 l 284 513 l 192 171 q 184 141 200 119 q 216 98 246 98 l 515 98 z"},"@":{"x_min":0,"x_max":684,"ha":684,"o":"m 378 317 q 370 287 386 266 q 401 244 432 244 l 603 244 l 655 439 l 484 439 q 454 439 427 418 q 399 396 391 366 z m 694 586 l 377 586 q 347 586 319 564 q 292 543 284 513 l 192 171 q 184 141 200 119 q 216 98 246 98 l 612 98 l 586 0 l 220 0 q 149 0 112 50 q 76 100 95 171 l 186 513 q 205 583 269 634 q 332 684 403 684 l 818 684 l 674 146 l 405 146 q 334 146 298 197 q 261 247 280 317 l 293 366 q 312 437 376 487 q 439 537 510 537 l 681 537 z"},".":{"x_min":0,"x_max":195,"ha":195,"o":"m 75 98 l 173 98 l 146 0 l 49 0 z"},"p":{"x_min":0,"x_max":635,"ha":635,"o":"m 580 342 q 588 372 572 394 q 557 415 526 415 l 258 415 l 173 98 l 441 98 q 472 98 499 119 q 526 141 534 171 z m 186 513 l 552 513 q 623 513 660 463 q 696 413 678 342 l 632 171 q 613 100 549 50 q 486 0 415 0 l 146 0 l 101 -171 l 3 -171 z"},"X":{"x_min":0,"x_max":732,"ha":732,"o":"m 403 342 l 208 684 l 317 684 l 475 407 l 781 684 l 891 684 l 513 342 l 708 0 l 598 0 l 440 276 l 134 0 l 24 0 z"},"*":{"x_min":0,"x_max":513,"ha":513,"o":"m 468 604 l 600 644 l 605 551 l 473 512 l 521 408 l 426 351 l 378 454 l 275 351 l 212 408 l 315 512 l 204 551 l 258 644 l 370 604 l 404 732 l 502 732 z"},"Y":{"x_min":0,"x_max":732,"ha":732,"o":"m 407 335 l 403 342 l 208 684 l 317 684 l 475 407 l 781 684 l 891 684 l 513 342 l 505 334 l 415 0 l 317 0 z"},"c":{"x_min":0,"x_max":635,"ha":635,"o":"m 612 98 l 586 0 l 220 0 q 149 0 112 50 q 76 100 95 171 l 141 342 q 159 413 223 463 q 286 513 357 513 l 724 513 l 697 415 l 331 415 q 301 415 273 394 q 246 372 238 342 l 192 171 q 184 141 200 119 q 216 98 246 98 z"},"!":{"x_min":0,"x_max":195,"ha":195,"o":"m 186 146 l 88 146 l 232 684 l 330 684 z m 49 0 l 75 98 l 173 98 l 146 0 z"},"/":{"x_min":0,"x_max":464,"ha":464,"o":"m 49 0 l 500 684 l 598 684 l 146 0 z"},"[":{"x_min":0,"x_max":488,"ha":488,"o":"m 453 49 l 426 -49 l 36 -49 l 245 732 l 636 732 l 609 635 l 316 635 l 160 49 z"},"6":{"x_min":0,"x_max":732,"ha":732,"o":"m 238 342 l 192 171 q 184 141 200 119 q 216 98 246 98 l 539 98 q 569 98 596 119 q 624 141 632 171 l 658 269 q 666 299 650 320 q 635 342 604 342 z m 264 439 l 630 439 q 701 439 738 389 q 774 339 755 269 l 729 171 q 710 100 647 50 q 583 0 513 0 l 220 0 q 149 0 112 50 q 76 100 95 171 l 186 513 q 205 583 269 634 q 332 684 403 684 l 818 684 l 792 586 l 377 586 q 347 586 319 564 q 292 543 284 513 z"},"r":{"x_min":0,"x_max":439,"ha":439,"o":"m 49 0 l 141 342 q 159 413 223 463 q 286 513 357 513 l 528 513 l 502 415 l 331 415 q 301 415 273 394 q 246 372 238 342 l 146 0 z"},"2":{"x_min":0,"x_max":732,"ha":732,"o":"m 298 293 q 268 293 241 271 q 213 250 206 220 l 173 98 l 710 98 l 684 0 l 49 0 l 108 220 q 126 291 190 341 q 253 391 324 391 l 617 391 q 647 391 675 412 q 702 434 710 464 l 723 513 q 731 543 716 564 q 700 586 670 586 l 206 586 l 232 684 l 696 684 q 767 684 803 634 q 840 583 821 513 l 808 464 q 789 393 726 343 q 662 293 591 293 z"},"{":{"x_min":0,"x_max":537,"ha":537,"o":"m 352 220 l 326 122 q 317 92 333 70 q 349 49 379 49 l 501 49 l 475 -49 l 353 -49 q 282 -49 246 1 q 209 51 228 122 l 254 220 q 262 250 247 271 q 231 293 201 293 l 127 293 l 153 391 l 227 391 q 257 391 284 412 q 312 434 320 464 l 346 562 q 365 632 428 682 q 492 732 562 732 l 685 732 l 658 635 l 536 635 q 506 635 479 613 q 452 592 443 562 l 417 464 q 398 393 334 341 q 371 291 352 220 z"},"9":{"x_min":0,"x_max":732,"ha":732,"o":"m 678 342 l 723 513 q 731 543 716 564 q 700 586 670 586 l 377 586 q 347 586 319 564 q 292 543 284 513 l 258 415 q 250 385 265 363 q 281 342 312 342 z m 651 244 l 285 244 q 214 244 178 294 q 141 344 160 415 l 186 513 q 205 583 269 634 q 332 684 403 684 l 696 684 q 767 684 803 634 q 840 583 821 513 l 729 171 q 710 100 647 50 q 583 0 513 0 l 98 0 l 124 98 l 539 98 q 569 98 596 119 q 624 141 632 171 z"}," ":{"x_min":0,"x_max":391,"ha":391,"o":""},"I":{"x_min":0,"x_max":195,"ha":195,"o":"m 232 684 l 330 684 l 146 0 l 49 0 z"},"H":{"x_min":0,"x_max":781,"ha":781,"o":"m 232 684 l 330 684 l 251 391 l 739 391 l 818 684 l 916 684 l 732 0 l 635 0 l 713 293 l 225 293 l 146 0 l 49 0 z"},"4":{"x_min":0,"x_max":732,"ha":732,"o":"m 638 195 l 736 195 l 710 98 l 612 98 l 586 0 l 488 0 l 515 98 l 75 98 l 525 684 l 647 684 l 272 195 l 541 195 l 580 342 l 678 342 z"},"~":{"x_min":0,"x_max":684,"ha":684,"o":"m 433 977 l 530 977 q 581 977 607 941 q 633 905 620 854 q 617 844 622 837 q 627 830 638 830 l 735 830 q 746 830 754 837 q 763 844 766 854 l 779 903 l 877 903 l 864 854 q 850 804 805 768 q 760 732 709 732 l 611 732 q 561 732 534 768 q 508 804 522 854 q 525 865 520 872 q 514 879 504 879 l 406 879 q 396 879 387 872 q 378 865 375 854 l 362 806 l 265 806 l 278 854 q 292 905 337 941 q 382 977 433 977 z"},"D":{"x_min":0,"x_max":781,"ha":781,"o":"m 173 98 l 588 98 q 618 98 645 119 q 672 141 681 171 l 772 513 q 780 543 765 564 q 749 586 719 586 l 304 586 z m 778 171 q 759 100 696 50 q 632 0 562 0 l 49 0 l 232 684 l 745 684 q 815 684 852 634 q 889 583 870 513 z"},"^":{"x_min":0,"x_max":684,"ha":684,"o":"m 245 732 l 271 830 l 604 977 l 857 830 l 831 732 l 577 879 z"},"0":{"x_min":0,"x_max":732,"ha":732,"o":"m 192 171 q 184 141 200 119 q 216 98 246 98 l 539 98 q 569 98 596 119 q 624 141 632 171 l 723 513 q 731 543 716 564 q 700 586 670 586 l 377 586 q 347 586 319 564 q 292 543 284 513 z m 729 171 q 710 100 647 50 q 583 0 513 0 l 220 0 q 149 0 112 50 q 76 100 95 171 l 186 513 q 205 583 269 634 q 332 684 403 684 l 696 684 q 767 684 803 634 q 840 583 821 513 z"},"F":{"x_min":0,"x_max":781,"ha":781,"o":"m 225 293 l 146 0 l 49 0 l 186 513 q 205 583 269 634 q 332 684 403 684 l 916 684 l 890 586 l 377 586 q 347 586 319 564 q 292 543 284 513 l 251 391 l 739 391 l 713 293 z"},"`":{"x_min":0,"x_max":439,"ha":439,"o":"m 311 977 l 530 977 l 587 732 l 465 732 z"},"k":{"x_min":0,"x_max":610,"ha":610,"o":"m 232 684 l 330 684 l 213 248 l 243 269 l 601 513 l 723 513 l 365 269 l 586 0 l 439 0 l 284 213 l 186 146 l 146 0 l 49 0 z"},"u":{"x_min":0,"x_max":635,"ha":635,"o":"m 625 513 l 723 513 l 632 171 q 613 100 549 50 q 486 0 415 0 l 220 0 q 149 0 112 50 q 76 100 95 171 l 186 513 l 284 513 l 192 171 q 184 141 200 119 q 216 98 246 98 l 441 98 q 472 98 499 119 q 526 141 534 171 z"},"]":{"x_min":0,"x_max":488,"ha":488,"o":"m 355 49 l 512 635 l 219 635 l 245 732 l 636 732 l 426 -49 l 36 -49 l 62 49 z"},"U":{"x_min":0,"x_max":781,"ha":781,"o":"m 192 171 q 184 141 200 119 q 216 98 246 98 l 588 98 q 618 98 645 119 q 672 141 681 171 l 818 684 l 916 684 l 778 171 q 759 100 696 50 q 632 0 562 0 l 220 0 q 149 0 112 50 q 76 100 95 171 l 232 684 l 330 684 z"},"o":{"x_min":0,"x_max":635,"ha":635,"o":"m 192 171 q 184 141 200 119 q 216 98 246 98 l 441 98 q 472 98 499 119 q 526 141 534 171 l 580 342 q 588 372 572 394 q 557 415 526 415 l 331 415 q 301 415 273 394 q 246 372 238 342 z m 632 171 q 613 100 549 50 q 486 0 415 0 l 220 0 q 149 0 112 50 q 76 100 95 171 l 141 342 q 159 413 223 463 q 286 513 357 513 l 552 513 q 623 513 660 463 q 696 413 678 342 z"},"N":{"x_min":0,"x_max":781,"ha":781,"o":"m 298 567 l 146 0 l 49 0 l 232 684 l 342 684 l 666 116 l 818 684 l 916 684 l 732 0 l 623 0 z"},"+":{"x_min":0,"x_max":635,"ha":635,"o":"m 347 293 l 127 293 l 153 391 l 373 391 l 426 586 l 523 586 l 471 391 l 690 391 l 665 293 l 445 293 l 393 98 l 295 98 z"},"G":{"x_min":0,"x_max":781,"ha":781,"o":"m 837 391 l 778 171 q 759 100 696 50 q 632 0 562 0 l 220 0 q 149 0 112 50 q 76 100 95 171 l 186 513 q 205 583 269 634 q 332 684 403 684 l 916 684 l 890 586 l 377 586 q 347 586 319 564 q 292 543 284 513 l 192 171 q 184 141 200 119 q 216 98 246 98 l 588 98 q 618 98 645 119 q 672 141 681 171 l 713 293 l 469 293 l 495 391 z"},"q":{"x_min":0,"x_max":635,"ha":635,"o":"m 192 171 q 184 141 200 119 q 216 98 246 98 l 515 98 l 600 415 l 331 415 q 301 415 273 394 q 246 372 238 342 z m 540 -171 l 442 -171 l 488 0 l 220 0 q 149 0 112 50 q 76 100 95 171 l 141 342 q 159 413 223 463 q 286 513 357 513 l 723 513 z"},"d":{"x_min":0,"x_max":635,"ha":635,"o":"m 192 171 q 184 141 200 119 q 216 98 246 98 l 515 98 l 600 415 l 331 415 q 301 415 273 394 q 246 372 238 342 z m 586 0 l 220 0 q 149 0 112 50 q 76 100 95 171 l 141 342 q 159 413 223 463 q 286 513 357 513 l 625 513 l 671 684 l 769 684 z"},"1":{"x_min":0,"x_max":195,"ha":195,"o":"m 232 684 l 330 684 l 146 0 l 49 0 z"},"5":{"x_min":0,"x_max":732,"ha":732,"o":"m 141 342 l 232 684 l 818 684 l 792 586 l 304 586 l 264 439 l 630 439 q 701 439 738 389 q 774 339 755 269 l 729 171 q 710 100 647 50 q 583 0 513 0 l 49 0 l 75 98 l 539 98 q 569 98 596 119 q 624 141 632 171 l 658 269 q 666 299 650 320 q 635 342 604 342 z"}}}
